PathFileType	4	(X/Y/Z)	F:\MotionCapture\20160217\3\Generated_files\2_Test02-Dynamic.trc
DataRate	CameraRate	NumFrames	NumMarkers	Units	OrigDataRate	OrigDataStartFrame	OrigNumFrames
120.00	120.00	       5	39	mm	120.00	79	       627
Frame#	Time	Top.Head			Front.Head			Rear.Head			R.Shoulder			R.Offset			R.Elbow			R.Wrist			L.Shoulder			L.Elbow			L.Wrist			R.ASIS			L.ASIS			V.Sacral			R.Thigh			R.Knee			R.Shank			R.Ankle			R.Heel			R.Toe			L.Thigh			L.Knee			L.Shank			L.Ankle			L.Heel			L.Toe			R1			R2			R3			R4			R5			R6			R7			L1			L2			L3			L4			L5			L6			L7			V_Mid_ASIS			V_Pelvis_Origin			V_R.Hip_JC			V_L.Hip_JC			V_R.Knee_JC			V_L.Knee_JC			V_R.Ankle_JC			V_L.Ankle_JC			V_Mid_Hip			V_Mid_Shoulder			V_R.Hand			V_L.Hand			V_R.Toe_Offset_Static			V_L.Toe_Offset_Static			V_R.Toe_Offset			V_L.Toe_Offset			
		X1	Y1	Z1	X2	Y2	Z2	X3	Y3	Z3	X4	Y4	Z4	X5	Y5	Z5	X6	Y6	Z6	X7	Y7	Z7	X8	Y8	Z8	X9	Y9	Z9	X10	Y10	Z10	X11	Y11	Z11	X12	Y12	Z12	X13	Y13	Z13	X14	Y14	Z14	X15	Y15	Z15	X16	Y16	Z16	X17	Y17	Z17	X18	Y18	Z18	X19	Y19	Z19	X20	Y20	Z20	X21	Y21	Z21	X22	Y22	Z22	X23	Y23	Z23	X24	Y24	Z24	X25	Y25	Z25	X26	Y26	Z26	X27	Y27	Z27	X28	Y28	Z28	X29	Y29	Z29	X30	Y30	Z30	X31	Y31	Z31	X32	Y32	Z32	X33	Y33	Z33	X34	Y34	Z34	X35	Y35	Z35	X36	Y36	Z36	X37	Y37	Z37	X38	Y38	Z38	X39	Y39	Z39	

79	0.650	1198.80566	189.31143	1695.59277	1097.76172	182.52113	1598.85693	1314.60303	184.41753	1640.11621	1275.06714	372.25940	1397.68494	1427.20703	113.29679	1259.66650	1292.71179	497.68362	1083.08716	1104.97778	487.51074	900.56671	1272.44507	-34.57928	1398.57849	1378.79712	-152.58659	1108.42859	1364.17114	-194.58414	853.69098	1246.61841	317.86752	915.96686	1213.40027	34.57934	935.95465	1454.04565	141.67520	927.90271	1273.89807	306.02045	525.31458	1398.36450	343.01233	442.99689	1549.53186	268.17737	264.34558	1721.21155	325.70297	198.64828	1760.88916	258.66196	241.15964	1683.25732	298.66025	56.44606	1104.76831	81.62285	648.19434	1136.09375	29.03950	472.36166	1117.03491	109.97717	333.64771	1157.72229	42.77748	63.96449	1227.68970	96.68731	45.57250	1020.60938	60.76252	44.20205	1649.59827	278.70966	35.82848	1667.27075	263.38440	59.89500	1688.07324	238.66101	148.31050	1733.80212	231.08864	206.88084	1755.04785	302.35382	212.68710	1733.60278	329.74777	136.28058	1711.76770	336.47256	73.45548	977.23969	91.59898	39.65526	1011.68695	100.31289	46.83997	1109.21057	137.11922	52.68598	1193.94141	131.67285	45.72944	1199.21619	59.10247	44.61497	1124.12976	36.18183	34.26117	1060.40100	27.52526	41.36972	
80	0.658	1187.69287	188.27365	1697.95032	1086.95813	181.42671	1601.93274	1303.46155	182.96877	1642.50354	1263.65161	371.17017	1400.28174	1415.41516	111.76516	1261.75830	1285.21289	495.59235	1085.62695	1100.58960	486.46036	898.95996	1260.33594	-35.38920	1400.95142	1363.40100	-153.83673	1109.25964	1345.39429	-194.72209	854.52606	1235.59753	316.29587	918.09247	1202.46216	33.03688	937.83325	1442.86902	140.72815	929.89374	1254.38855	305.00708	527.72644	1375.86560	343.26193	442.57831	1529.85254	267.51437	267.69980	1702.59888	324.78961	207.81680	1739.83459	256.96942	251.96991	1675.18970	298.70291	61.27044	1097.20715	80.71301	647.72180	1132.03394	27.68084	472.29129	1114.84375	109.49176	333.34216	1158.14807	43.36440	63.53074	1227.58301	96.30721	45.18938	1020.69275	60.70817	43.95700	1643.08667	280.76398	34.59531	1657.09717	263.61935	63.66108	1672.24878	238.23338	154.33116	1714.23071	229.35133	215.86922	1736.75037	300.79474	223.02650	1719.47742	328.78790	146.11755	1702.08459	336.47937	82.52238	977.20184	91.56524	39.33825	1011.76398	100.37020	46.63669	1109.27368	137.03279	52.71037	1194.05737	131.51836	45.82766	1198.02698	59.44044	43.19343	1124.33252	36.10728	34.15272	1060.48572	27.40397	41.24249	
81	0.667	1176.28516	187.21780	1700.49963	1076.45032	180.74614	1604.28918	1292.41870	181.86415	1644.72351	1252.86206	370.22122	1402.98706	1403.64319	110.29832	1264.29602	1277.44580	493.46414	1087.82495	1096.44543	485.01877	897.56915	1248.19482	-36.25375	1403.55200	1348.27234	-154.59961	1110.49768	1325.13416	-194.16280	855.72308	1224.15454	315.29919	920.64862	1190.93152	31.57318	939.56091	1431.72925	140.03748	932.04718	1234.60913	303.84406	530.31396	1352.93079	343.19785	442.66916	1509.38940	266.99454	271.33655	1682.99475	323.66946	214.51990	1716.64624	254.65923	261.53644	1663.66345	299.07220	65.54910	1090.24817	80.45956	647.67987	1127.66943	26.96231	472.22311	1112.64807	108.97437	333.11026	1158.40027	43.49746	63.20044	1227.79810	96.61038	45.50330	1020.72900	60.65911	43.88448	1634.51257	285.98923	33.97162	1645.05811	264.79538	67.14333	1655.90881	237.42593	159.78368	1693.13013	227.56964	223.82687	1716.60950	298.15753	232.34253	1703.41650	325.90274	155.42006	1689.25464	335.54105	90.92815	977.23560	91.44214	38.99231	1011.94098	100.31368	46.55058	1109.32361	136.91852	52.79886	1194.09045	131.44539	45.82854	1198.15039	59.40047	43.13358	1123.37537	34.91835	35.47379	1060.58447	27.20083	41.23960	
82	0.675	1165.56384	186.42351	1702.93945	1064.73560	179.95020	1607.02368	1281.16699	181.03755	1646.94470	1242.15845	369.06653	1405.66272	1392.14807	108.47834	1266.52893	1269.79028	491.05600	1090.15356	1092.39233	484.20801	895.89282	1236.17383	-37.25637	1406.17200	1332.86389	-155.50977	1111.38391	1305.19568	-193.74538	856.62671	1212.60986	314.21603	922.64307	1180.11633	30.58162	941.31226	1421.06592	139.45076	934.28656	1215.14539	302.98175	533.56799	1329.90332	343.52069	443.71548	1487.93481	266.18167	274.25348	1662.74414	321.24606	220.47748	1692.26318	251.22206	269.05106	1648.33264	300.72321	71.52083	1083.44580	80.58029	647.62817	1124.16138	26.25725	471.81735	1109.85669	108.28786	332.68924	1159.06726	43.07754	63.43243	1227.90588	96.57570	45.45317	1020.72272	60.45878	43.68446	1624.29163	290.52600	38.31470	1631.90222	266.34937	70.81633	1636.81323	235.06409	164.54543	1670.75330	224.78970	229.81337	1695.54138	294.89212	240.55426	1686.30237	324.13138	163.62325	1676.10803	334.65475	98.14082	977.49463	91.41885	38.68593	1012.01074	100.23895	46.40609	1109.29993	136.79918	52.94792	1194.17700	131.33598	45.97711	1199.71448	58.83142	44.44012	1123.38562	34.74102	35.40311	1060.73828	27.00253	41.13621	
83	0.683	1154.19641	185.63712	1705.14014	1053.59924	179.45407	1609.00916	1269.82507	180.12001	1649.33484	1231.11169	368.34854	1407.65759	1380.72095	106.60651	1269.05005	1262.29150	489.19452	1092.23535	1088.72742	483.15479	894.23901	1223.71472	-37.97608	1408.67224	1317.20776	-156.42162	1111.99146	1285.00354	-193.16710	858.11121	1202.07288	313.49243	924.73834	1169.06946	29.72325	943.10162	1409.98352	138.84914	936.36908	1194.97668	302.07635	536.72968	1307.41382	343.71487	445.32886	1466.69739	264.43903	277.65820	1641.57813	318.17188	225.91287	1668.78625	247.05664	273.95883	1631.25232	303.00616	78.11489	1077.50061	80.90439	647.15784	1120.16516	25.72332	471.27847	1107.72095	107.51537	332.06821	1158.90527	43.18626	62.84765	1227.96167	96.47145	45.41181	1020.65466	60.40464	43.43544	1608.50598	295.09460	43.28368	1612.25696	268.82077	74.99709	1616.79602	233.13052	167.79028	1649.04907	221.88231	233.61374	1674.17383	290.82214	246.48843	1667.61353	322.00372	170.15665	1660.97083	333.71066	105.17122	977.59070	91.52625	38.45547	1012.11365	100.18925	46.29913	1109.29492	136.61201	52.98314	1194.66455	131.54166	46.27892	1198.42957	59.30836	43.05946	1123.48193	34.61919	35.27750	1060.93750	26.70267	40.95374	
